<?xml version="1.0" encoding="UTF-8"?>
<svg id="Laag_1" data-name="Laag 1" xmlns="http://www.w3.org/2000/svg" viewBox="0 0 424.14 76">
  <defs>
    <style>
      .cls-1 {
        opacity: .85;
      }

      .cls-2 {
        fill: #ddb775;
      }
    </style>
  </defs>
  <g class="cls-1">
    <path class="cls-2" d="M388.71,5.49c-1.4,.06-2.82,.11-4.23,.17,.75,.37,1.51,1,2.34,2.04,.99,.63,1.33-.86,1.89-2.21Z"/>
    <path class="cls-2" d="M380.57,5.77c-.26,0-.51,0-.75,.01-.21,.21-.41,.43-.58,.65,.44-.25,.89-.47,1.34-.66Z"/>
    <path class="cls-2" d="M373.41,8.23c1.32,.22,2.54-.14,3.7-.68-1.1-.37-2.33-.25-3.7,.68Z"/>
    <path class="cls-2" d="M379.38,9.14c-.54-.9-.85-1.88-.17-2.68,0,0,.02,0,.03-.02-.7,.38-1.39,.78-2.13,1.11,.82,.28,1.59,.84,2.27,1.59Z"/>
    <path class="cls-2" d="M379.38,9.14c.52,.87,1.29,1.66,1.58,2.17-.47-.8-1-1.54-1.58-2.17Z"/>
    <path class="cls-2" d="M379.6,32.03c-.68,.8-1.09-5.64-2.43-4.04-3.3,2.19-6.02,5.39-9.27,5.74-1.36,1.6-4.29-5.29-5.64-3.7-3.31,2.15-11.53,11.66-6.32,10.75,7.81-1.72,12.81-4,19.77-5.95,5.52-3.2,10.74-6.91,16.37-9.94,1.61-.49,3.19-.2,4.78,.04-2.11-.74-4.27-1.47-6.65-2.15-3.17-1.42-6.02,7.26-10.62,9.24Z"/>
    <path class="cls-2" d="M420.01,5.26c-.64,.82-1.93,2.47-1.93,2.47-3.79-4.12-6.99-1.85-10.22,.4,.61,.98,1.24,1.98,1.87,2.99,1.92-.63,1.95-2.45,.05-3.61,4.42,3.37,8.27,3.39,12.06,2.19-.45-1.7-.64-3.71-1.83-4.44Z"/>
    <path class="cls-2" d="M424.04,8.84c-.73,.32-1.47,.61-2.2,.85,.04,.18,.1,.35,.15,.54,.72-.42,1.45-.84,2.15-1.25-.03-.05-.07-.09-.1-.14Z"/>
    <path class="cls-2" d="M358.35,15.73c-9.75,1.24-18.99,1.76-28.03,1.91-.6,1.32-.99,2.81-1.97,2.14-.78-1.06-1.54-1.71-2.27-2.12-1.32,0-2.64,0-3.95,0-.45,.18-.9,.4-1.35,.62,0,.01-.03,.02-.04,.04-.69,.79-.4,1.76,.12,2.68,.55,.64,1.08,1.4,1.53,2.21-.29-.52-1.03-1.33-1.53-2.21-.67-.76-1.41-1.35-2.24-1.65-1.17,.49-2.41,.83-3.73,.55,1.39-.87,2.63-.97,3.73-.55,.74-.32,1.45-.7,2.16-1.07,.2-.21,.39-.42,.6-.64-3.02-.02-6.02-.11-9.03-.19-.68,.22-1.32,.42-1.84,.68-2.11,1.04-4.21,2.06-5.74-.96-.53-.01-1.07-.04-1.62-.08,.11,.19,.23,.34,.35,.56-.25-.18-.46-.37-.64-.56-2.27-.1-4.55-.21-6.83-.31-1.39,1.32-2.81,2.96-4.27,3.99,0,0-1.15-2.08-1.72-3.1-.52,1.65-1.34,2.78-2.33,3.4,1.34,1.83,2.58,3.88,3.7,5.12,1.72,3.1,3.01-6.71,5.18-.78-2.17-5.94-3.46,3.88-5.18,.78-1.12-1.24-2.36-3.28-3.7-5.12-2.08,1.31-4.92,.36-7.34-2.62,2.61-2.92,5.1-.46,7.34,2.62,1-.62,1.81-1.75,2.33-3.4,.57,1.02,1.72,3.1,1.72,3.1,1.46-1.03,2.88-2.66,4.27-3.99-4.46-.22-8.97-.44-13.58-.66-29.67-1.99-56.82,.63-87.56-.24-16.67-.69-32.73-2.33-48.55-5-31.55-5.31-59.44,5.31-91.81-8.72-12.39-4.85-34.61-.18-46.21,1.31C-6.66,15.24,3,42.3,3.82,43.81c10.93,22.87,17.68,9.27,37.99,21.73-13.75-6.92,8.94-15.85,22.42-.6,19.58,23.3,44.36,1.81,67.14,6.52,5.69,1.18,11.58-.35,18.31-.33,35.21,5.91,66.88-6.77,103.51-7.44,9.67-.75,17.85-7.32,25.83-11.17,5.9-1.54,12.47,1.16,17.34,.78,7.64-.63,14.1-3.39,20.22-6.73-6.98,1.75-12.02,3.87-19.81,5.43-5.21,.78,3.14-8.52,6.49-10.61,1.39-1.55,4.17,5.41,5.56,3.85,3.23-.26,6.01-3.39,9.35-5.48,1.39-1.56,1.64,4.9,2.34,4.12,4.64-1.86,7.71-10.41,10.84-8.9,2.36,.75,4.49,1.57,6.58,2.38,1.3,.24,2.59,.42,3.92,.04,.8-.6,1.62-1.23,2.45-1.85-.83-1.91-1.26-4.29-1.67-6.69,1.27,.24,3.13,1.49,4.41,1.74-1.27-.24-3.14-1.5-4.41-1.74,.41,2.4,.83,4.78,1.67,6.69,5.94-4.34,12.83-8.43,19.24-11.87-.04-.17-.09-.39-.14-.56-3.83,1.06-7.67,.83-12-2.68,1.85,1.25,1.78,3.05-.18,3.63-.59-1.02-1.19-2.05-1.77-3.07,3.32-2.13,6.61-4.3,10.26,.01,0,0,1.36-1.59,2.03-2.38,1.17,.77,1.28,2.8,1.66,4.49,.75-.2,1.5-.46,2.25-.75-1.89-3.02-7.31-6.63-7.31-6.63Z"/>
    <path class="cls-2" d="M318.52,19.15c.51-.25,1.15-.45,1.83-.67-2.52-.09-5.05-.18-7.59-.27,1.53,3.02,3.64,1.98,5.75,.94Z"/>
  </g>
</svg>