<?xml version="1.0" encoding="UTF-8"?>
<svg id="Laag_1" data-name="Laag 1" xmlns="http://www.w3.org/2000/svg" viewBox="0 0 380.88 76">
  <defs>
    <style>
      .cls-1 {
        opacity: .85;
      }

      .cls-2 {
        fill: #ddb775;
      }
    </style>
  </defs>
  <g class="cls-1">
    <path class="cls-2" d="M349.06,5.49c-1.26,.06-2.53,.11-3.8,.17,.67,.37,1.36,1,2.1,2.04,.89,.63,1.19-.86,1.7-2.21Z"/>
    <path class="cls-2" d="M341.75,5.77c-.23,0-.46,0-.67,.01-.19,.21-.37,.43-.52,.65,.4-.25,.8-.47,1.2-.66Z"/>
    <path class="cls-2" d="M335.32,8.23c1.19,.22,2.28-.14,3.32-.68-.99-.37-2.09-.25-3.32,.68Z"/>
    <path class="cls-2" d="M340.68,9.14c-.48-.9-.76-1.88-.16-2.68,0,0,.02,0,.03-.02-.63,.38-1.25,.78-1.91,1.11,.74,.28,1.43,.84,2.04,1.59Z"/>
    <path class="cls-2" d="M340.68,9.14c.47,.87,1.16,1.66,1.42,2.17-.43-.8-.9-1.54-1.42-2.17Z"/>
    <path class="cls-2" d="M340.88,32.03c-.61,.8-.98-5.64-2.19-4.04-2.96,2.19-5.4,5.39-8.32,5.74-1.22,1.6-3.85-5.29-5.06-3.7-2.97,2.15-10.35,11.66-5.67,10.75,7.02-1.72,11.5-4,17.76-5.95,4.95-3.2,9.65-6.91,14.7-9.94,1.45-.49,2.86-.2,4.29,.04-1.9-.74-3.84-1.47-5.97-2.15-2.85-1.42-5.41,7.26-9.54,9.24Z"/>
    <path class="cls-2" d="M377.17,5.26c-.58,.82-1.74,2.47-1.74,2.47-3.4-4.12-6.28-1.85-9.18,.4,.55,.98,1.11,1.98,1.68,2.99,1.73-.63,1.75-2.45,.05-3.61,3.97,3.37,7.43,3.39,10.83,2.19-.4-1.7-.57-3.71-1.64-4.44Z"/>
    <path class="cls-2" d="M380.79,8.84c-.66,.32-1.32,.61-1.98,.85,.03,.18,.09,.35,.13,.54,.65-.42,1.3-.84,1.93-1.25-.03-.05-.06-.09-.09-.14Z"/>
    <path class="cls-2" d="M321.79,15.73c-8.76,1.24-17.05,1.76-25.17,1.91-.54,1.32-.89,2.81-1.77,2.14-.7-1.06-1.38-1.71-2.04-2.12-1.19,0-2.37,0-3.55,0-.4,.18-.8,.4-1.21,.62,0,.01-.02,.02-.03,.04-.62,.79-.36,1.76,.1,2.68,.5,.64,.97,1.4,1.38,2.21-.26-.52-.92-1.33-1.38-2.21-.61-.76-1.26-1.35-2.01-1.65-1.05,.49-2.16,.83-3.35,.55,1.25-.87,2.36-.97,3.35-.55,.67-.32,1.3-.7,1.94-1.07,.18-.21,.35-.42,.54-.64-2.71-.02-5.41-.11-8.1-.19-.61,.22-1.19,.42-1.66,.68-1.89,1.04-3.78,2.06-5.16-.96-.48-.01-.96-.04-1.45-.08,.1,.19,.21,.34,.31,.56-.22-.18-.42-.37-.57-.56-2.04-.1-4.08-.21-6.14-.31-1.25,1.32-2.53,2.96-3.84,3.99,0,0-1.03-2.08-1.54-3.1-.47,1.65-1.2,2.78-2.1,3.4,1.2,1.83,2.32,3.88,3.32,5.12,1.54,3.1,2.71-6.71,4.65-.78-1.95-5.94-3.11,3.88-4.65,.78-1.01-1.24-2.12-3.28-3.32-5.12-1.86,1.31-4.42,.36-6.59-2.62,2.35-2.92,4.58-.46,6.59,2.62,.9-.62,1.63-1.75,2.1-3.4,.51,1.02,1.54,3.1,1.54,3.1,1.31-1.03,2.59-2.66,3.84-3.99-4.01-.22-8.06-.44-12.2-.66-26.65-1.99-51.03,.63-78.63-.24-14.97-.69-29.4-2.33-43.6-5-28.33-5.31-53.38,5.31-82.44-8.72-11.13-4.85-31.08-.18-41.49,1.31C-5.98,15.24,2.69,42.3,3.43,43.81c9.81,22.87,15.87,9.27,34.11,21.73-12.34-6.92,8.03-15.85,20.14-.6,17.58,23.3,39.84,1.81,60.29,6.52,5.11,1.18,10.4-.35,16.44-.33,31.62,5.91,60.06-6.77,92.95-7.44,8.69-.75,16.03-7.32,23.19-11.17,5.3-1.54,11.2,1.16,15.57,.78,6.86-.63,12.66-3.39,18.16-6.73-6.26,1.75-10.79,3.87-17.79,5.43-4.68,.78,2.82-8.52,5.82-10.61,1.25-1.55,3.74,5.41,5,3.85,2.9-.26,5.4-3.39,8.4-5.48,1.25-1.56,1.48,4.9,2.1,4.12,4.16-1.86,6.92-10.41,9.74-8.9,2.12,.75,4.04,1.57,5.91,2.38,1.17,.24,2.32,.42,3.52,.04,.72-.6,1.46-1.23,2.2-1.85-.75-1.91-1.13-4.29-1.5-6.69,1.14,.24,2.81,1.49,3.96,1.74-1.14-.24-2.82-1.5-3.96-1.74,.37,2.4,.75,4.78,1.5,6.69,5.33-4.34,11.52-8.43,17.28-11.87-.04-.17-.08-.39-.12-.56-3.44,1.06-6.89,.83-10.78-2.68,1.66,1.25,1.6,3.05-.16,3.63-.53-1.02-1.06-2.05-1.59-3.07,2.98-2.13,5.94-4.3,9.21,.01,0,0,1.22-1.59,1.83-2.38,1.05,.77,1.15,2.8,1.49,4.49,.67-.2,1.35-.46,2.02-.75-1.7-3.02-6.56-6.63-6.56-6.63Z"/>
    <path class="cls-2" d="M286.03,19.15c.46-.25,1.03-.45,1.65-.67-2.27-.09-4.54-.18-6.81-.27,1.38,3.02,3.27,1.98,5.17,.94Z"/>
  </g>
</svg>