<?xml version="1.0" encoding="UTF-8"?>
<svg id="Laag_1" data-name="Laag 1" xmlns="http://www.w3.org/2000/svg" viewBox="0 0 434.38 76">
  <defs>
    <style>
      .cls-1 {
        opacity: .85;
      }

      .cls-2 {
        fill: #ddb775;
      }
    </style>
  </defs>
  <g class="cls-1">
    <path class="cls-2" d="M398.1,5.49c-1.44,.06-2.88,.11-4.33,.17,.77,.37,1.55,1,2.39,2.04,1.01,.63,1.36-.86,1.94-2.21Z"/>
    <path class="cls-2" d="M389.76,5.77c-.26,0-.52,0-.77,.01-.21,.21-.42,.43-.6,.65,.45-.25,.91-.47,1.37-.66Z"/>
    <path class="cls-2" d="M382.43,8.23c1.36,.22,2.61-.14,3.79-.68-1.13-.37-2.38-.25-3.79,.68Z"/>
    <path class="cls-2" d="M388.54,9.14c-.55-.9-.87-1.88-.18-2.68,0,0,.02,0,.03-.02-.72,.38-1.43,.78-2.18,1.11,.84,.28,1.63,.84,2.33,1.59Z"/>
    <path class="cls-2" d="M388.54,9.14c.53,.87,1.32,1.66,1.61,2.17-.49-.8-1.03-1.54-1.61-2.17Z"/>
    <path class="cls-2" d="M388.77,32.03c-.7,.8-1.12-5.64-2.49-4.04-3.38,2.19-6.16,5.39-9.49,5.74-1.39,1.6-4.39-5.29-5.77-3.7-3.39,2.15-11.8,11.66-6.47,10.75,8-1.72,13.12-4,20.25-5.95,5.65-3.2,11-6.91,16.77-9.94,1.65-.49,3.27-.2,4.89,.04-2.17-.74-4.37-1.47-6.81-2.15-3.25-1.42-6.16,7.26-10.88,9.24Z"/>
    <path class="cls-2" d="M430.15,5.26c-.66,.82-1.98,2.47-1.98,2.47-3.88-4.12-7.16-1.85-10.46,.4,.63,.98,1.27,1.98,1.92,2.99,1.97-.63,1.99-2.45,.05-3.61,4.53,3.37,8.47,3.39,12.35,2.19-.46-1.7-.65-3.71-1.87-4.44Z"/>
    <path class="cls-2" d="M434.28,8.84c-.75,.32-1.51,.61-2.25,.85,.04,.18,.1,.35,.15,.54,.74-.42,1.48-.84,2.21-1.25-.03-.05-.07-.09-.1-.14Z"/>
    <path class="cls-2" d="M367,15.73c-9.99,1.24-19.45,1.76-28.7,1.91-.62,1.32-1.01,2.81-2.02,2.14-.8-1.06-1.57-1.71-2.33-2.12-1.35,0-2.71,0-4.05,0-.46,.18-.92,.4-1.38,.62,0,.01-.03,.02-.04,.04-.71,.79-.41,1.76,.12,2.68,.57,.64,1.1,1.4,1.57,2.21-.3-.52-1.05-1.33-1.57-2.21-.69-.76-1.44-1.35-2.29-1.65-1.2,.49-2.47,.83-3.82,.55,1.42-.87,2.69-.97,3.82-.55,.76-.32,1.48-.7,2.21-1.07,.2-.21,.4-.42,.61-.64-3.09-.02-6.16-.11-9.24-.19-.69,.22-1.35,.42-1.89,.68-2.16,1.04-4.31,2.06-5.88-.96-.54-.01-1.1-.04-1.65-.08,.11,.19,.24,.34,.35,.56-.26-.18-.48-.37-.66-.56-2.32-.1-4.66-.21-7-.31-1.43,1.32-2.88,2.96-4.38,3.99,0,0-1.18-2.08-1.76-3.1-.53,1.65-1.37,2.78-2.39,3.4,1.37,1.83,2.64,3.88,3.79,5.12,1.76,3.1,3.09-6.71,5.31-.78-2.22-5.94-3.54,3.88-5.31,.78-1.15-1.24-2.42-3.28-3.79-5.12-2.13,1.31-5.04,.36-7.52-2.62,2.68-2.92,5.23-.46,7.52,2.62,1.02-.62,1.86-1.75,2.39-3.4,.58,1.02,1.76,3.1,1.76,3.1,1.5-1.03,2.95-2.66,4.38-3.99-4.57-.22-9.19-.44-13.91-.66-30.39-1.99-58.2,.63-89.68-.24-17.07-.69-33.52-2.33-49.73-5-32.31-5.31-60.88,5.31-94.03-8.72-12.69-4.85-35.45-.18-47.32,1.31C-6.82,15.24,3.07,42.3,3.91,43.81c11.19,22.87,18.1,9.27,38.91,21.73-14.08-6.92,9.16-15.85,22.96-.6,20.05,23.3,45.43,1.81,68.76,6.52,5.83,1.18,11.86-.35,18.75-.33,36.06,5.91,68.5-6.77,106.01-7.44,9.91-.75,18.28-7.32,26.45-11.17,6.05-1.54,12.77,1.16,17.76,.78,7.83-.63,14.44-3.39,20.71-6.73-7.14,1.75-12.31,3.87-20.29,5.43-5.34,.78,3.21-8.52,6.64-10.61,1.42-1.55,4.27,5.41,5.7,3.85,3.31-.26,6.15-3.39,9.58-5.48,1.42-1.56,1.68,4.9,2.4,4.12,4.75-1.86,7.89-10.41,11.11-8.9,2.41,.75,4.6,1.57,6.74,2.38,1.33,.24,2.65,.42,4.01,.04,.82-.6,1.66-1.23,2.51-1.85-.85-1.91-1.29-4.29-1.71-6.69,1.3,.24,3.21,1.49,4.51,1.74-1.3-.24-3.21-1.5-4.51-1.74,.42,2.4,.85,4.78,1.71,6.69,6.08-4.34,13.14-8.43,19.71-11.87-.04-.17-.1-.39-.14-.56-3.92,1.06-7.86,.83-12.29-2.68,1.9,1.25,1.82,3.05-.18,3.63-.61-1.02-1.21-2.05-1.81-3.07,3.4-2.13,6.77-4.3,10.51,.01,0,0,1.39-1.59,2.08-2.38,1.2,.77,1.32,2.8,1.7,4.49,.76-.2,1.53-.46,2.3-.75-1.93-3.02-7.48-6.63-7.48-6.63Z"/>
    <path class="cls-2" d="M326.21,19.15c.53-.25,1.18-.45,1.88-.67-2.59-.09-5.17-.18-7.77-.27,1.57,3.02,3.73,1.98,5.89,.94Z"/>
  </g>
</svg>