<?xml version="1.0" encoding="UTF-8"?>
<svg id="Laag_1" data-name="Laag 1" xmlns="http://www.w3.org/2000/svg" viewBox="0 0 445.05 76">
  <defs>
    <style>
      .cls-1 {
        opacity: .85;
      }

      .cls-2 {
        fill: #ddb775;
      }
    </style>
  </defs>
  <g class="cls-1">
    <path class="cls-2" d="M407.88,5.49c-1.47,.06-2.96,.11-4.44,.17,.78,.37,1.59,1,2.45,2.04,1.04,.63,1.39-.86,1.98-2.21Z"/>
    <path class="cls-2" d="M399.33,5.77c-.27,0-.54,0-.79,.01-.22,.21-.43,.43-.61,.65,.46-.25,.93-.47,1.4-.66Z"/>
    <path class="cls-2" d="M391.82,8.23c1.39,.22,2.67-.14,3.88-.68-1.15-.37-2.44-.25-3.88,.68Z"/>
    <path class="cls-2" d="M398.08,9.14c-.56-.9-.89-1.88-.18-2.68,0,0,.02,0,.03-.02-.74,.38-1.46,.78-2.23,1.11,.86,.28,1.67,.84,2.38,1.59Z"/>
    <path class="cls-2" d="M398.08,9.14c.54,.87,1.35,1.66,1.65,2.17-.5-.8-1.05-1.54-1.65-2.17Z"/>
    <path class="cls-2" d="M398.31,32.03c-.72,.8-1.14-5.64-2.55-4.04-3.46,2.19-6.31,5.39-9.72,5.74-1.43,1.6-4.5-5.29-5.92-3.7-3.48,2.15-12.09,11.66-6.63,10.75,8.2-1.72,13.44-4,20.75-5.95,5.79-3.2,11.27-6.91,17.18-9.94,1.69-.49,3.35-.2,5.01,.04-2.22-.74-4.48-1.47-6.98-2.15-3.33-1.42-6.32,7.26-11.14,9.24Z"/>
    <path class="cls-2" d="M440.72,5.26c-.67,.82-2.03,2.47-2.03,2.47-3.98-4.12-7.33-1.85-10.72,.4,.65,.98,1.3,1.98,1.97,2.99,2.02-.63,2.04-2.45,.05-3.61,4.64,3.37,8.68,3.39,12.65,2.19-.47-1.7-.67-3.71-1.92-4.44Z"/>
    <path class="cls-2" d="M444.95,8.84c-.77,.32-1.55,.61-2.31,.85,.04,.18,.1,.35,.15,.54,.76-.42,1.52-.84,2.26-1.25-.03-.05-.07-.09-.11-.14Z"/>
    <path class="cls-2" d="M376.01,15.73c-10.23,1.24-19.92,1.76-29.41,1.91-.63,1.32-1.04,2.81-2.07,2.14-.82-1.06-1.61-1.71-2.38-2.12-1.39,0-2.77,0-4.15,0-.47,.18-.94,.4-1.42,.62,0,.01-.03,.02-.04,.04-.72,.79-.42,1.76,.12,2.68,.58,.64,1.13,1.4,1.61,2.21-.31-.52-1.08-1.33-1.61-2.21-.71-.76-1.48-1.35-2.35-1.65-1.23,.49-2.53,.83-3.91,.55,1.46-.87,2.76-.97,3.91-.55,.78-.32,1.52-.7,2.26-1.07,.21-.21,.41-.42,.63-.64-3.17-.02-6.32-.11-9.47-.19-.71,.22-1.39,.42-1.93,.68-2.21,1.04-4.42,2.06-6.03-.96-.56-.01-1.13-.04-1.7-.08,.12,.19,.24,.34,.36,.56-.26-.18-.49-.37-.67-.56-2.38-.1-4.77-.21-7.17-.31-1.46,1.32-2.95,2.96-4.48,3.99,0,0-1.21-2.08-1.8-3.1-.54,1.65-1.4,2.78-2.45,3.4,1.4,1.83,2.71,3.88,3.88,5.12,1.81,3.1,3.16-6.71,5.44-.78-2.27-5.94-3.63,3.88-5.44,.78-1.18-1.24-2.48-3.28-3.88-5.12-2.18,1.31-5.16,.36-7.7-2.62,2.74-2.92,5.35-.46,7.7,2.62,1.05-.62,1.9-1.75,2.45-3.4,.59,1.02,1.8,3.1,1.8,3.1,1.53-1.03,3.02-2.66,4.48-3.99-4.68-.22-9.41-.44-14.25-.66-31.14-1.99-59.62,.63-91.88-.24-17.49-.69-34.35-2.33-50.95-5-33.1-5.31-62.37,5.31-96.33-8.72-13-4.85-36.32-.18-48.49,1.31C-6.99,15.24,3.15,42.3,4.01,43.81c11.47,22.87,18.55,9.27,39.86,21.73-14.42-6.92,9.38-15.85,23.53-.6,20.54,23.3,46.55,1.81,70.44,6.52,5.97,1.18,12.16-.35,19.22-.33,36.95,5.91,70.18-6.77,108.61-7.44,10.15-.75,18.73-7.32,27.1-11.17,6.19-1.54,13.09,1.16,18.19,.78,8.02-.63,14.79-3.39,21.22-6.73-7.32,1.75-12.61,3.87-20.79,5.43-5.47,.78,3.29-8.52,6.81-10.61,1.46-1.55,4.37,5.41,5.84,3.85,3.39-.26,6.31-3.39,9.81-5.48,1.46-1.56,1.72,4.9,2.45,4.12,4.87-1.86,8.09-10.41,11.38-8.9,2.47,.75,4.72,1.57,6.9,2.38,1.36,.24,2.72,.42,4.11,.04,.84-.6,1.7-1.23,2.57-1.85-.87-1.91-1.32-4.29-1.75-6.69,1.33,.24,3.29,1.49,4.62,1.74-1.34-.24-3.29-1.5-4.62-1.74,.43,2.4,.87,4.78,1.75,6.69,6.23-4.34,13.46-8.43,20.19-11.87-.04-.17-.1-.39-.14-.56-4.02,1.06-8.05,.83-12.59-2.68,1.94,1.25,1.87,3.05-.19,3.63-.62-1.02-1.24-2.05-1.86-3.07,3.48-2.13,6.94-4.3,10.77,.01,0,0,1.43-1.59,2.13-2.38,1.22,.77,1.35,2.8,1.74,4.49,.78-.2,1.57-.46,2.36-.75-1.98-3.02-7.67-6.63-7.67-6.63Z"/>
    <path class="cls-2" d="M334.22,19.15c.54-.25,1.21-.45,1.92-.67-2.65-.09-5.3-.18-7.96-.27,1.61,3.02,3.82,1.98,6.04,.94Z"/>
  </g>
</svg>