<?xml version="1.0" encoding="UTF-8"?>
<svg id="Laag_1" data-name="Laag 1" xmlns="http://www.w3.org/2000/svg" viewBox="0 0 690 75">
  <defs>
    <style>
      .cls-1 {
        opacity: .85;
      }

      .cls-2 {
        fill: #ddb775;
      }
    </style>
  </defs>
  <g class="cls-1">
    <path class="cls-2" d="M632.36,5.41c-2.28,.06-4.58,.11-6.88,.17,1.22,.37,2.46,.99,3.8,2.02,1.61,.62,2.16-.85,3.08-2.18Z"/>
    <path class="cls-2" d="M619.12,5.7c-.42,0-.83,0-1.22,.01-.34,.21-.66,.42-.95,.64,.72-.25,1.45-.46,2.17-.65Z"/>
    <path class="cls-2" d="M607.47,8.12c2.15,.21,4.14-.14,6.02-.67-1.79-.36-3.78-.24-6.02,.67Z"/>
    <path class="cls-2" d="M617.18,9.02c-.87-.89-1.38-1.85-.28-2.65,.01,0,.03,0,.05-.02-1.14,.38-2.27,.77-3.46,1.1,1.34,.28,2.58,.83,3.7,1.57Z"/>
    <path class="cls-2" d="M617.18,9.02c.84,.86,2.1,1.64,2.56,2.14-.77-.79-1.63-1.52-2.56-2.14Z"/>
    <path class="cls-2" d="M617.54,31.6c-1.11,.79-1.77-5.57-3.96-3.99-5.37,2.17-9.79,5.32-15.07,5.66-2.21,1.58-6.97-5.22-9.17-3.65-5.39,2.12-18.75,11.5-10.28,10.61,12.71-1.7,20.84-3.95,32.17-5.87,8.98-3.16,17.48-6.82,26.63-9.81,2.62-.49,5.19-.19,7.77,.04-3.44-.73-6.95-1.45-10.82-2.12-5.16-1.4-9.79,7.17-17.28,9.11Z"/>
    <path class="cls-2" d="M683.28,5.19c-1.04,.81-3.15,2.44-3.15,2.44-6.17-4.07-11.37-1.83-16.62,.4,1,.97,2.02,1.95,3.05,2.95,3.13-.62,3.17-2.42,.08-3.57,7.19,3.32,13.45,3.34,19.61,2.16-.73-1.68-1.04-3.66-2.97-4.38Z"/>
    <path class="cls-2" d="M689.84,8.72c-1.19,.31-2.4,.6-3.58,.84,.06,.18,.16,.35,.24,.53,1.18-.42,2.35-.83,3.51-1.24-.05-.04-.11-.09-.16-.14Z"/>
    <path class="cls-2" d="M582.97,15.52c-15.87,1.22-30.89,1.73-45.59,1.88-.98,1.3-1.61,2.78-3.2,2.11-1.27-1.05-2.5-1.68-3.69-2.09-2.15,0-4.3,0-6.43,0-.72,.18-1.46,.39-2.2,.61,0,.01-.04,.02-.06,.04-1.12,.78-.66,1.74,.19,2.64,.9,.63,1.75,1.38,2.49,2.19-.47-.51-1.67-1.31-2.49-2.19-1.1-.75-2.29-1.33-3.64-1.62-1.91,.49-3.92,.82-6.07,.55,2.26-.86,4.28-.96,6.07-.55,1.21-.32,2.36-.69,3.51-1.05,.32-.21,.64-.41,.98-.63-4.91-.02-9.79-.1-14.68-.19-1.1,.22-2.15,.41-3,.67-3.43,1.02-6.85,2.03-9.34-.95-.86-.01-1.75-.04-2.63-.08,.18,.19,.38,.34,.56,.55-.41-.18-.75-.37-1.04-.56-3.69-.1-7.39-.2-11.12-.31-2.27,1.31-4.58,2.92-6.95,3.93,0,0-1.87-2.05-2.79-3.06-.84,1.63-2.17,2.75-3.8,3.35,2.18,1.81,4.19,3.83,6.02,5.05,2.8,3.06,4.9-6.62,8.43-.77-3.53-5.86-5.63,3.83-8.43,.77-1.82-1.23-3.84-3.24-6.02-5.05-3.38,1.29-8,.35-11.94-2.58,4.25-2.88,8.3-.45,11.94,2.58,1.62-.61,2.95-1.72,3.8-3.35,.92,1.01,2.79,3.06,2.79,3.06,2.38-1.02,4.69-2.63,6.95-3.93-7.26-.21-14.6-.43-22.09-.65-48.27-1.96-92.44,.62-142.45-.23-27.11-.68-53.25-2.3-78.99-4.94-51.32-5.24-96.7,5.24-149.36-8.6-20.16-4.78-56.31-.18-75.17,1.29C-10.84,15.04,4.88,41.74,6.22,43.23c17.78,22.57,28.76,9.15,61.8,21.44-22.36-6.83,14.55-15.64,36.48-.59,31.84,22.99,72.17,1.79,109.22,6.44,9.26,1.17,18.85-.34,29.79-.33,57.28,5.83,108.8-6.68,168.39-7.34,15.74-.74,29.03-7.22,42.02-11.03,9.6-1.52,20.29,1.14,28.21,.77,12.43-.62,22.93-3.35,32.9-6.64-11.35,1.72-19.55,3.82-32.23,5.36-8.48,.77,5.1-8.41,10.55-10.47,2.26-1.53,6.78,5.34,9.05,3.8,5.25-.26,9.78-3.34,15.21-5.41,2.26-1.54,2.67,4.84,3.8,4.07,7.54-1.83,12.54-10.27,17.64-8.79,3.83,.74,7.31,1.55,10.7,2.35,2.12,.24,4.21,.42,6.37,.04,1.3-.59,2.64-1.21,3.99-1.83-1.36-1.88-2.05-4.23-2.71-6.6,2.07,.23,5.1,1.47,7.17,1.71-2.07-.24-5.1-1.48-7.17-1.71,.66,2.37,1.36,4.72,2.71,6.6,9.66-4.28,20.87-8.32,31.3-11.72-.07-.17-.15-.38-.22-.56-6.23,1.04-12.48,.81-19.52-2.65,3.01,1.23,2.89,3.01-.29,3.58-.96-1.01-1.93-2.03-2.88-3.03,5.4-2.11,10.75-4.24,16.69,.01,0,0,2.21-1.57,3.31-2.35,1.9,.76,2.09,2.76,2.7,4.43,1.21-.19,2.44-.45,3.66-.74-3.07-2.98-11.88-6.54-11.88-6.54Z"/>
    <path class="cls-2" d="M518.17,18.9c.84-.25,1.87-.45,2.98-.66-4.11-.09-8.22-.18-12.34-.26,2.5,2.98,5.93,1.95,9.36,.92Z"/>
  </g>
</svg>