<?xml version="1.0" encoding="UTF-8"?>
<svg id="Laag_1" data-name="Laag 1" xmlns="http://www.w3.org/2000/svg" viewBox="0 0 704.28 76">
  <defs>
    <style>
      .cls-1 {
        opacity: .85;
      }

      .cls-2 {
        fill: #ddb775;
      }
    </style>
  </defs>
  <g class="cls-1">
    <path class="cls-2" d="M645.45,5.49c-2.33,.06-4.68,.11-7.02,.17,1.24,.37,2.51,1,3.88,2.04,1.64,.63,2.21-.86,3.14-2.21Z"/>
    <path class="cls-2" d="M631.93,5.77c-.42,0-.85,0-1.25,.01-.35,.21-.68,.43-.97,.65,.73-.25,1.48-.47,2.22-.66Z"/>
    <path class="cls-2" d="M620.04,8.23c2.2,.22,4.22-.14,6.15-.68-1.83-.37-3.86-.25-6.15,.68Z"/>
    <path class="cls-2" d="M629.96,9.14c-.89-.9-1.41-1.88-.29-2.68,.01,0,.03,0,.05-.02-1.16,.38-2.32,.78-3.53,1.11,1.37,.28,2.64,.84,3.77,1.59Z"/>
    <path class="cls-2" d="M629.96,9.14c.86,.87,2.14,1.66,2.62,2.17-.79-.8-1.67-1.54-2.62-2.17Z"/>
    <path class="cls-2" d="M630.32,32.03c-1.14,.8-1.81-5.64-4.04-4.04-5.48,2.19-9.99,5.39-15.38,5.74-2.26,1.6-7.12-5.29-9.36-3.7-5.5,2.15-19.14,11.66-10.49,10.75,12.97-1.72,21.27-4,32.83-5.95,9.16-3.2,17.84-6.91,27.18-9.94,2.67-.49,5.3-.2,7.93,.04-3.51-.74-7.09-1.47-11.04-2.15-5.27-1.42-10,7.26-17.63,9.24Z"/>
    <path class="cls-2" d="M697.42,5.26c-1.06,.82-3.21,2.47-3.21,2.47-6.3-4.12-11.6-1.85-16.97,.4,1.02,.98,2.06,1.98,3.11,2.99,3.19-.63,3.23-2.45,.09-3.61,7.34,3.37,13.73,3.39,20.02,2.19-.75-1.7-1.06-3.71-3.04-4.44Z"/>
    <path class="cls-2" d="M704.11,8.84c-1.22,.32-2.45,.61-3.66,.85,.06,.18,.16,.35,.24,.54,1.2-.42,2.4-.84,3.58-1.25-.05-.05-.11-.09-.17-.14Z"/>
    <path class="cls-2" d="M595.03,15.73c-16.19,1.24-31.53,1.76-46.54,1.91-1,1.32-1.64,2.81-3.27,2.14-1.29-1.06-2.55-1.71-3.77-2.12-2.2,0-4.39,0-6.56,0-.74,.18-1.49,.4-2.24,.62,0,.01-.04,.02-.06,.04-1.14,.79-.67,1.76,.19,2.68,.92,.64,1.79,1.4,2.55,2.21-.48-.52-1.7-1.33-2.55-2.21-1.12-.76-2.34-1.35-3.72-1.65-1.95,.49-4,.83-6.19,.55,2.31-.87,4.37-.97,6.19-.55,1.23-.32,2.41-.7,3.58-1.07,.33-.21,.65-.42,1-.64-5.01-.02-10-.11-14.99-.19-1.12,.22-2.2,.42-3.06,.68-3.5,1.04-6.99,2.06-9.54-.96-.88-.01-1.78-.04-2.68-.08,.19,.19,.38,.34,.57,.56-.42-.18-.77-.37-1.06-.56-3.77-.1-7.55-.21-11.35-.31-2.31,1.32-4.67,2.96-7.1,3.99,0,0-1.91-2.08-2.85-3.1-.86,1.65-2.22,2.78-3.88,3.4,2.22,1.83,4.28,3.88,6.14,5.12,2.86,3.1,5-6.71,8.6-.78-3.6-5.94-5.75,3.88-8.6,.78-1.86-1.24-3.92-3.28-6.14-5.12-3.45,1.31-8.17,.36-12.18-2.62,4.34-2.92,8.47-.46,12.18,2.62,1.66-.62,3.01-1.75,3.88-3.4,.94,1.02,2.85,3.1,2.85,3.1,2.42-1.03,4.78-2.66,7.1-3.99-7.41-.22-14.9-.44-22.55-.66-49.27-1.99-94.35,.63-145.39-.24-27.68-.69-54.35-2.33-80.62-5-52.38-5.31-98.7,5.31-152.45-8.72-20.58-4.85-57.47-.18-76.73,1.31C-11.06,15.24,4.98,42.3,6.35,43.81c18.15,22.87,29.35,9.27,63.08,21.73-22.83-6.92,14.85-15.85,37.23-.6,32.5,23.3,73.66,1.81,111.48,6.52,9.45,1.18,19.24-.35,30.41-.33,58.46,5.91,111.06-6.77,171.87-7.44,16.06-.75,29.64-7.32,42.89-11.17,9.8-1.54,20.71,1.16,28.79,.78,12.69-.63,23.41-3.39,33.58-6.73-11.58,1.75-19.95,3.87-32.9,5.43-8.65,.78,5.21-8.52,10.77-10.61,2.31-1.55,6.92,5.41,9.24,3.85,5.36-.26,9.98-3.39,15.53-5.48,2.31-1.56,2.73,4.9,3.88,4.12,7.7-1.86,12.8-10.41,18.01-8.9,3.91,.75,7.46,1.57,10.93,2.38,2.16,.24,4.3,.42,6.51,.04,1.32-.6,2.7-1.23,4.07-1.85-1.38-1.91-2.09-4.29-2.77-6.69,2.11,.24,5.2,1.49,7.32,1.74-2.11-.24-5.21-1.5-7.32-1.74,.68,2.4,1.38,4.78,2.77,6.69,9.86-4.34,21.3-8.43,31.95-11.87-.07-.17-.16-.39-.23-.56-6.36,1.06-12.74,.83-19.93-2.68,3.07,1.25,2.95,3.05-.3,3.63-.98-1.02-1.97-2.05-2.94-3.07,5.51-2.13,10.98-4.3,17.04,.01,0,0,2.26-1.59,3.38-2.38,1.94,.77,2.13,2.8,2.75,4.49,1.24-.2,2.49-.46,3.73-.75-3.14-3.02-12.13-6.63-12.13-6.63Z"/>
    <path class="cls-2" d="M528.9,19.15c.85-.25,1.91-.45,3.04-.67-4.19-.09-8.39-.18-12.6-.27,2.55,3.02,6.05,1.98,9.56,.94Z"/>
  </g>
</svg>