<?xml version="1.0" encoding="UTF-8"?>
<svg id="Laag_1" data-name="Laag 1" xmlns="http://www.w3.org/2000/svg" viewBox="0 0 263 76">
  <defs>
    <style>
      .cls-1 {
        opacity: .85;
      }

      .cls-2 {
        fill: #ddb775;
      }
    </style>
  </defs>
  <g class="cls-1">
    <path class="cls-2" d="M241.03,5.49c-.87,.06-1.75,.11-2.62,.17,.46,.37,.94,1,1.45,2.04,.61,.63,.82-.86,1.17-2.21Z"/>
    <path class="cls-2" d="M235.98,5.77c-.16,0-.32,0-.47,.01-.13,.21-.25,.43-.36,.65,.27-.25,.55-.47,.83-.66Z"/>
    <path class="cls-2" d="M231.54,8.23c.82,.22,1.58-.14,2.3-.68-.68-.37-1.44-.25-2.3,.68Z"/>
    <path class="cls-2" d="M235.25,9.14c-.33-.9-.53-1.88-.11-2.68,0,0,.01,0,.02-.02-.43,.38-.86,.78-1.32,1.11,.51,.28,.98,.84,1.41,1.59Z"/>
    <path class="cls-2" d="M235.25,9.14c.32,.87,.8,1.66,.98,2.17-.29-.8-.62-1.54-.98-2.17Z"/>
    <path class="cls-2" d="M235.38,32.03c-.42,.8-.68-5.64-1.51-4.04-2.05,2.19-3.73,5.39-5.75,5.74-.84,1.6-2.66-5.29-3.5-3.7-2.05,2.15-7.15,11.66-3.92,10.75,4.84-1.72,7.94-4,12.26-5.95,3.42-3.2,6.66-6.91,10.15-9.94,1-.49,1.98-.2,2.96,.04-1.31-.74-2.65-1.47-4.12-2.15-1.97-1.42-3.73,7.26-6.58,9.24Z"/>
    <path class="cls-2" d="M260.44,5.26c-.4,.82-1.2,2.47-1.2,2.47-2.35-4.12-4.33-1.85-6.34,.4,.38,.98,.77,1.98,1.16,2.99,1.19-.63,1.21-2.45,.03-3.61,2.74,3.37,5.13,3.39,7.48,2.19-.28-1.7-.4-3.71-1.13-4.44Z"/>
    <path class="cls-2" d="M262.94,8.84c-.45,.32-.91,.61-1.37,.85,.02,.18,.06,.35,.09,.54,.45-.42,.9-.84,1.34-1.25-.02-.05-.04-.09-.06-.14Z"/>
    <path class="cls-2" d="M222.2,15.73c-6.05,1.24-11.77,1.76-17.38,1.91-.37,1.32-.61,2.81-1.22,2.14-.48-1.06-.95-1.71-1.41-2.12-.82,0-1.64,0-2.45,0-.28,.18-.56,.4-.84,.62,0,.01-.02,.02-.02,.04-.43,.79-.25,1.76,.07,2.68,.34,.64,.67,1.4,.95,2.21-.18-.52-.64-1.33-.95-2.21-.42-.76-.87-1.35-1.39-1.65-.73,.49-1.49,.83-2.31,.55,.86-.87,1.63-.97,2.31-.55,.46-.32,.9-.7,1.34-1.07,.12-.21,.24-.42,.37-.64-1.87-.02-3.73-.11-5.6-.19-.42,.22-.82,.42-1.14,.68-1.31,1.04-2.61,2.06-3.56-.96-.33-.01-.67-.04-1-.08,.07,.19,.14,.34,.21,.56-.16-.18-.29-.37-.4-.56-1.41-.1-2.82-.21-4.24-.31-.86,1.32-1.74,2.96-2.65,3.99,0,0-.71-2.08-1.06-3.1-.32,1.65-.83,2.78-1.45,3.4,.83,1.83,1.6,3.88,2.29,5.12,1.07,3.1,1.87-6.71,3.21-.78-1.34-5.94-2.15,3.88-3.21,.78-.69-1.24-1.46-3.28-2.29-5.12-1.29,1.31-3.05,.36-4.55-2.62,1.62-2.92,3.16-.46,4.55,2.62,.62-.62,1.13-1.75,1.45-3.4,.35,1.02,1.06,3.1,1.06,3.1,.91-1.03,1.79-2.66,2.65-3.99-2.77-.22-5.56-.44-8.42-.66-18.4-1.99-35.23,.63-54.29-.24-10.33-.69-20.3-2.33-30.11-5-19.56-5.31-36.86,5.31-56.93-8.72-7.68-4.85-21.46-.18-28.65,1.31C-4.13,15.24,1.86,42.3,2.37,43.81c6.78,22.87,10.96,9.27,23.56,21.73-8.52-6.92,5.55-15.85,13.9-.6,12.14,23.3,27.51,1.81,41.63,6.52,3.53,1.18,7.18-.35,11.36-.33,21.83,5.91,41.47-6.77,64.18-7.44,6-.75,11.07-7.32,16.02-11.17,3.66-1.54,7.73,1.16,10.75,.78,4.74-.63,8.74-3.39,12.54-6.73-4.33,1.75-7.45,3.87-12.28,5.43-3.23,.78,1.95-8.52,4.02-10.61,.86-1.55,2.58,5.41,3.45,3.85,2-.26,3.73-3.39,5.8-5.48,.86-1.56,1.02,4.9,1.45,4.12,2.88-1.86,4.78-10.41,6.72-8.9,1.46,.75,2.79,1.57,4.08,2.38,.81,.24,1.6,.42,2.43,.04,.49-.6,1.01-1.23,1.52-1.85-.52-1.91-.78-4.29-1.03-6.69,.79,.24,1.94,1.49,2.73,1.74-.79-.24-1.94-1.5-2.73-1.74,.25,2.4,.52,4.78,1.03,6.69,3.68-4.34,7.96-8.43,11.93-11.87-.03-.17-.06-.39-.08-.56-2.37,1.06-4.76,.83-7.44-2.68,1.15,1.25,1.1,3.05-.11,3.63-.37-1.02-.74-2.05-1.1-3.07,2.06-2.13,4.1-4.3,6.36,.01,0,0,.84-1.59,1.26-2.38,.72,.77,.8,2.8,1.03,4.49,.46-.2,.93-.46,1.39-.75-1.17-3.02-4.53-6.63-4.53-6.63Z"/>
    <path class="cls-2" d="M197.51,19.15c.32-.25,.71-.45,1.14-.67-1.57-.09-3.13-.18-4.7-.27,.95,3.02,2.26,1.98,3.57,.94Z"/>
  </g>
</svg>