<?xml version="1.0" encoding="UTF-8"?>
<svg id="Laag_1" data-name="Laag 1" xmlns="http://www.w3.org/2000/svg" viewBox="0 0 390.56 76">
  <defs>
    <style>
      .cls-1 {
        opacity: .85;
      }

      .cls-2 {
        fill: #ddb775;
      }
    </style>
  </defs>
  <g class="cls-1">
    <path class="cls-2" d="M357.93,5.49c-1.29,.06-2.59,.11-3.89,.17,.69,.37,1.39,1,2.15,2.04,.91,.63,1.22-.86,1.74-2.21Z"/>
    <path class="cls-2" d="M350.44,5.77c-.24,0-.47,0-.69,.01-.19,.21-.38,.43-.54,.65,.41-.25,.82-.47,1.23-.66Z"/>
    <path class="cls-2" d="M343.84,8.23c1.22,.22,2.34-.14,3.41-.68-1.01-.37-2.14-.25-3.41,.68Z"/>
    <path class="cls-2" d="M349.34,9.14c-.5-.9-.78-1.88-.16-2.68,0,0,.02,0,.03-.02-.65,.38-1.28,.78-1.96,1.11,.76,.28,1.46,.84,2.09,1.59Z"/>
    <path class="cls-2" d="M349.34,9.14c.48,.87,1.19,1.66,1.45,2.17-.44-.8-.92-1.54-1.45-2.17Z"/>
    <path class="cls-2" d="M349.54,32.03c-.63,.8-1-5.64-2.24-4.04-3.04,2.19-5.54,5.39-8.53,5.74-1.25,1.6-3.95-5.29-5.19-3.7-3.05,2.15-10.61,11.66-5.82,10.75,7.19-1.72,11.8-4,18.21-5.95,5.08-3.2,9.89-6.91,15.07-9.94,1.48-.49,2.94-.2,4.4,.04-1.95-.74-3.93-1.47-6.12-2.15-2.92-1.42-5.54,7.26-9.78,9.24Z"/>
    <path class="cls-2" d="M386.75,5.26c-.59,.82-1.78,2.47-1.78,2.47-3.49-4.12-6.43-1.85-9.41,.4,.57,.98,1.14,1.98,1.72,2.99,1.77-.63,1.79-2.45,.05-3.61,4.07,3.37,7.62,3.39,11.1,2.19-.41-1.7-.59-3.71-1.68-4.44Z"/>
    <path class="cls-2" d="M390.46,8.84c-.67,.32-1.36,.61-2.03,.85,.04,.18,.09,.35,.14,.54,.67-.42,1.33-.84,1.98-1.25-.03-.05-.06-.09-.09-.14Z"/>
    <path class="cls-2" d="M329.97,15.73c-8.98,1.24-17.49,1.76-25.81,1.91-.56,1.32-.91,2.81-1.81,2.14-.72-1.06-1.41-1.71-2.09-2.12-1.22,0-2.43,0-3.64,0-.41,.18-.82,.4-1.24,.62,0,.01-.02,.02-.03,.04-.63,.79-.37,1.76,.11,2.68,.51,.64,.99,1.4,1.41,2.21-.27-.52-.94-1.33-1.41-2.21-.62-.76-1.3-1.35-2.06-1.65-1.08,.49-2.22,.83-3.43,.55,1.28-.87,2.42-.97,3.43-.55,.68-.32,1.33-.7,1.99-1.07,.18-.21,.36-.42,.55-.64-2.78-.02-5.54-.11-8.31-.19-.62,.22-1.22,.42-1.7,.68-1.94,1.04-3.88,2.06-5.29-.96-.49-.01-.99-.04-1.49-.08,.1,.19,.21,.34,.32,.56-.23-.18-.43-.37-.59-.56-2.09-.1-4.19-.21-6.29-.31-1.28,1.32-2.59,2.96-3.93,3.99,0,0-1.06-2.08-1.58-3.1-.48,1.65-1.23,2.78-2.15,3.4,1.23,1.83,2.37,3.88,3.41,5.12,1.58,3.1,2.77-6.71,4.77-.78-2-5.94-3.19,3.88-4.77,.78-1.03-1.24-2.17-3.28-3.41-5.12-1.91,1.31-4.53,.36-6.76-2.62,2.41-2.92,4.7-.46,6.76,2.62,.92-.62,1.67-1.75,2.15-3.4,.52,1.02,1.58,3.1,1.58,3.1,1.34-1.03,2.65-2.66,3.93-3.99-4.11-.22-8.26-.44-12.51-.66-27.32-1.99-52.32,.63-80.63-.24-15.35-.69-30.14-2.33-44.71-5-29.05-5.31-54.73,5.31-84.54-8.72-11.41-4.85-31.87-.18-42.55,1.31C-6.13,15.24,2.76,42.3,3.52,43.81c10.06,22.87,16.28,9.27,34.98,21.73-12.66-6.92,8.23-15.85,20.65-.6,18.03,23.3,40.85,1.81,61.82,6.52,5.24,1.18,10.67-.35,16.86-.33,32.42,5.91,61.59-6.77,95.31-7.44,8.91-.75,16.43-7.32,23.78-11.17,5.44-1.54,11.49,1.16,15.97,.78,7.04-.63,12.98-3.39,18.62-6.73-6.42,1.75-11.07,3.87-18.24,5.43-4.8,.78,2.89-8.52,5.97-10.61,1.28-1.55,3.84,5.41,5.12,3.85,2.97-.26,5.53-3.39,8.61-5.48,1.28-1.56,1.51,4.9,2.15,4.12,4.27-1.86,7.1-10.41,9.99-8.9,2.17,.75,4.14,1.57,6.06,2.38,1.2,.24,2.38,.42,3.61,.04,.73-.6,1.5-1.23,2.26-1.85-.77-1.91-1.16-4.29-1.54-6.69,1.17,.24,2.88,1.49,4.06,1.74-1.17-.24-2.89-1.5-4.06-1.74,.38,2.4,.77,4.78,1.54,6.69,5.47-4.34,11.81-8.43,17.72-11.87-.04-.17-.09-.39-.13-.56-3.53,1.06-7.06,.83-11.05-2.68,1.7,1.25,1.64,3.05-.17,3.63-.54-1.02-1.09-2.05-1.63-3.07,3.06-2.13,6.09-4.3,9.45,.01,0,0,1.25-1.59,1.87-2.38,1.07,.77,1.18,2.8,1.53,4.49,.69-.2,1.38-.46,2.07-.75-1.74-3.02-6.73-6.63-6.73-6.63Z"/>
    <path class="cls-2" d="M293.3,19.15c.47-.25,1.06-.45,1.69-.67-2.32-.09-4.65-.18-6.99-.27,1.41,3.02,3.35,1.98,5.3,.94Z"/>
  </g>
</svg>