<?xml version="1.0" encoding="UTF-8"?>
<svg id="Laag_1" data-name="Laag 1" xmlns="http://www.w3.org/2000/svg" viewBox="0 0 284.42 76">
  <defs>
    <style>
      .cls-1 {
        opacity: .85;
      }

      .cls-2 {
        fill: #ddb775;
      }
    </style>
  </defs>
  <g class="cls-1">
    <path class="cls-2" d="M260.66,5.49c-.94,.06-1.89,.11-2.84,.17,.5,.37,1.01,1,1.57,2.04,.66,.63,.89-.86,1.27-2.21Z"/>
    <path class="cls-2" d="M255.2,5.77c-.17,0-.34,0-.5,.01-.14,.21-.27,.43-.39,.65,.3-.25,.6-.47,.9-.66Z"/>
    <path class="cls-2" d="M250.4,8.23c.89,.22,1.71-.14,2.48-.68-.74-.37-1.56-.25-2.48,.68Z"/>
    <path class="cls-2" d="M254.4,9.14c-.36-.9-.57-1.88-.12-2.68,0,0,.01,0,.02-.02-.47,.38-.94,.78-1.43,1.11,.55,.28,1.07,.84,1.52,1.59Z"/>
    <path class="cls-2" d="M254.4,9.14c.35,.87,.87,1.66,1.06,2.17-.32-.8-.67-1.54-1.06-2.17Z"/>
    <path class="cls-2" d="M254.55,32.03c-.46,.8-.73-5.64-1.63-4.04-2.21,2.19-4.03,5.39-6.21,5.74-.91,1.6-2.87-5.29-3.78-3.7-2.22,2.15-7.73,11.66-4.24,10.75,5.24-1.72,8.59-4,13.26-5.95,3.7-3.2,7.2-6.91,10.98-9.94,1.08-.49,2.14-.2,3.2,.04-1.42-.74-2.86-1.47-4.46-2.15-2.13-1.42-4.04,7.26-7.12,9.24Z"/>
    <path class="cls-2" d="M281.65,5.26c-.43,.82-1.3,2.47-1.3,2.47-2.54-4.12-4.69-1.85-6.85,.4,.41,.98,.83,1.98,1.26,2.99,1.29-.63,1.3-2.45,.03-3.61,2.96,3.37,5.55,3.39,8.08,2.19-.3-1.7-.43-3.71-1.23-4.44Z"/>
    <path class="cls-2" d="M284.35,8.84c-.49,.32-.99,.61-1.48,.85,.03,.18,.06,.35,.1,.54,.49-.42,.97-.84,1.44-1.25-.02-.05-.05-.09-.07-.14Z"/>
    <path class="cls-2" d="M240.3,15.73c-6.54,1.24-12.73,1.76-18.79,1.91-.4,1.32-.66,2.81-1.32,2.14-.52-1.06-1.03-1.71-1.52-2.12-.89,0-1.77,0-2.65,0-.3,.18-.6,.4-.91,.62,0,.01-.02,.02-.02,.04-.46,.79-.27,1.76,.08,2.68,.37,.64,.72,1.4,1.03,2.21-.2-.52-.69-1.33-1.03-2.21-.45-.76-.94-1.35-1.5-1.65-.79,.49-1.62,.83-2.5,.55,.93-.87,1.76-.97,2.5-.55,.5-.32,.97-.7,1.45-1.07,.13-.21,.26-.42,.4-.64-2.02-.02-4.04-.11-6.05-.19-.45,.22-.89,.42-1.24,.68-1.41,1.04-2.82,2.06-3.85-.96-.36-.01-.72-.04-1.08-.08,.08,.19,.15,.34,.23,.56-.17-.18-.31-.37-.43-.56-1.52-.1-3.05-.21-4.58-.31-.93,1.32-1.89,2.96-2.87,3.99,0,0-.77-2.08-1.15-3.1-.35,1.65-.9,2.78-1.57,3.4,.9,1.83,1.73,3.88,2.48,5.12,1.15,3.1,2.02-6.71,3.47-.78-1.45-5.94-2.32,3.88-3.47,.78-.75-1.24-1.58-3.28-2.48-5.12-1.39,1.31-3.3,.36-4.92-2.62,1.75-2.92,3.42-.46,4.92,2.62,.67-.62,1.22-1.75,1.57-3.4,.38,1.02,1.15,3.1,1.15,3.1,.98-1.03,1.93-2.66,2.87-3.99-2.99-.22-6.02-.44-9.11-.66-19.9-1.99-38.1,.63-58.72-.24-11.18-.69-21.95-2.33-32.56-5-21.15-5.31-39.86,5.31-61.56-8.72-8.31-4.85-23.21-.18-30.99,1.31C-4.47,15.24,2.01,42.3,2.56,43.81c7.33,22.87,11.85,9.27,25.48,21.73-9.22-6.92,6-15.85,15.04-.6,13.13,23.3,29.75,1.81,45.02,6.52,3.82,1.18,7.77-.35,12.28-.33,23.61,5.91,44.85-6.77,69.41-7.44,6.49-.75,11.97-7.32,17.32-11.17,3.96-1.54,8.36,1.16,11.63,.78,5.13-.63,9.45-3.39,13.56-6.73-4.68,1.75-8.06,3.87-13.28,5.43-3.49,.78,2.1-8.52,4.35-10.61,.93-1.55,2.8,5.41,3.73,3.85,2.16-.26,4.03-3.39,6.27-5.48,.93-1.56,1.1,4.9,1.57,4.12,3.11-1.86,5.17-10.41,7.27-8.9,1.58,.75,3.01,1.57,4.41,2.38,.87,.24,1.74,.42,2.63,.04,.53-.6,1.09-1.23,1.64-1.85-.56-1.91-.84-4.29-1.12-6.69,.85,.24,2.1,1.49,2.95,1.74-.85-.24-2.1-1.5-2.95-1.74,.27,2.4,.56,4.78,1.12,6.69,3.98-4.34,8.6-8.43,12.9-11.87-.03-.17-.06-.39-.09-.56-2.57,1.06-5.14,.83-8.05-2.68,1.24,1.25,1.19,3.05-.12,3.63-.4-1.02-.8-2.05-1.19-3.07,2.23-2.13,4.43-4.3,6.88,.01,0,0,.91-1.59,1.36-2.38,.78,.77,.86,2.8,1.11,4.49,.5-.2,1-.46,1.51-.75-1.27-3.02-4.9-6.63-4.9-6.63Z"/>
    <path class="cls-2" d="M213.59,19.15c.34-.25,.77-.45,1.23-.67-1.69-.09-3.39-.18-5.09-.27,1.03,3.02,2.44,1.98,3.86,.94Z"/>
  </g>
</svg>