<?xml version="1.0" encoding="UTF-8"?>
<svg id="Laag_1" data-name="Laag 1" xmlns="http://www.w3.org/2000/svg" viewBox="0 0 232.43 53.87">
  <defs>
    <style>
      .cls-1 {
        fill: #f1efeb;
      }

      .cls-2 {
        fill: #d9ae63;
      }
    </style>
  </defs>
  <g>
    <path class="cls-2" d="M9.75,5.98h-.05c-1.04,1.07-2.09,2.31-3.13,3.7-1.04,1.4-1.56,2.43-1.56,3.1,0,.25,.08,.43,.23,.55,.28,.31,.41,.67,.41,1.1,0,.49-.25,.98-.74,1.47-.77,.71-1.43,1.06-1.98,1.06-.28,0-.49-.12-.64-.37-.12-.37-.21-.68-.28-.94-.06-.26-.09-.47-.09-.62,0-.25,.07-.48,.21-.71,.14-.23,.22-.38,.25-.44,.71-2.3,1.88-4.23,3.52-5.8,1.64-1.56,2.84-2.35,3.61-2.35,.09,0,.15,.02,.18,.07,.03,.05,.05,.1,.05,.16Z"/>
    <path class="cls-2" d="M17.11,18.22l.18-.64c.09-.37,.14-.63,.14-.78,0-.12-.03-.24-.09-.35-.06-.11-.09-.21-.09-.3s.05-.28,.14-.55c.61-1.96,1.17-3.27,1.68-3.91,.51-.64,1.25-.97,2.23-.97,.43,0,.67,.14,.74,.41-.68,1.44-1.61,3.8-2.81,7.08h4.46c.86,0,1.29,.09,1.29,.28,0,.31-.71,.54-2.12,.71-1.41,.17-2.76,.25-4.05,.25-1.53,4.32-2.78,8.46-3.73,12.42-.15,.61-.23,1.06-.23,1.33,0,.52,.17,.78,.51,.78,.61,0,1.51-.54,2.69-1.63,1.18-1.09,1.82-1.63,1.91-1.63,.15,0,.23,.09,.23,.28,0,.52-.17,.86-.51,1.01-2.82,2.55-4.8,3.82-5.93,3.82-.71,0-1.06-.44-1.06-1.33,0-.49,.37-1.93,1.1-4.32,.09-.31,1.07-3.82,2.94-10.53-.74,.12-1.76,.18-3.08,.18-.71,0-1.06-.14-1.06-.41,0-.21,.2-.47,.6-.76,.4-.29,.72-.44,.97-.44h2.94Z"/>
    <path class="cls-2" d="M70.98,13.2c.12,0,.27,.06,.44,.18,.17,.12,.32,.3,.46,.53,.14,.23,.21,.47,.21,.71,0,.64-.14,1.46-.41,2.44-2.21,7.39-3.31,12.63-3.31,15.73,0,2.39,.63,3.59,1.89,3.59,1.1,0,2.53-.77,4.28-2.3s3.45-3.46,5.11-5.77c1.66-2.32,3.07-5.01,4.26-8.07,1.18-3.07,1.77-5.96,1.77-8.69,0-2.88-.8-4.62-2.39-5.2-.46-.15-.69-.35-.69-.6,0-.06,.03-.13,.09-.21,.06-.08,.15-.13,.25-.16,.11-.03,.24-.05,.39-.05,1.26,0,2.32,.51,3.2,1.54,.87,1.03,1.31,2.51,1.31,4.44,0,2.73-.71,5.74-2.12,9.04-1.41,3.3-3.1,6.24-5.06,8.83-1.96,2.59-4.01,4.77-6.14,6.53-2.13,1.76-3.9,2.65-5.31,2.65-1.9,0-2.85-1.72-2.85-5.15,0-1.17,.12-2.55,.35-4.16,.23-1.61,.47-3.02,.71-4.23,.25-1.21,.55-2.62,.92-4.23,.37-1.61,.6-2.66,.69-3.15-2.27,1.81-4.66,4.28-7.18,7.41-2.52,3.13-4.41,5.69-5.68,7.68-1.27,1.99-2.4,3.85-3.38,5.57v-.05c-.71,1.32-1.4,1.98-2.07,1.98-.31,0-.54-.13-.71-.39-.17-.26-.25-.62-.25-1.08,0-.4,.06-.81,.18-1.24,.09-.31,.81-2.48,2.16-6.53,1.35-4.05,2.49-7.94,3.43-11.68,.94-3.74,1.4-6.79,1.4-9.15,0-1.75-.39-3-1.17-3.75-.78-.75-2.09-1.13-3.93-1.13-1.17,0-2.55,.18-4.14,.55-1.59,.37-3.27,.95-5.04,1.75-1.76,.8-3.39,1.73-4.88,2.78-1.49,1.06-2.72,2.36-3.7,3.91-.98,1.55-1.47,3.18-1.47,4.9,0,1.84,.74,3.39,2.23,4.65,1.49,1.26,3.18,1.89,5.08,1.89,1.69,0,2.9-.26,3.63-.78,.06-.06,.13-.11,.21-.14,.08-.03,.15-.05,.21-.07,.06-.02,.12-.02,.18-.02,.18,0,.28,.08,.28,.23,0,.21-.21,.44-.64,.69-.89,.52-2.27,.78-4.14,.78h-.97c-2.05-.06-3.89-.78-5.5-2.16-1.61-1.38-2.42-3.11-2.42-5.2s.71-4.04,2.14-5.96c1.43-1.92,3.2-3.5,5.34-4.74,2.13-1.24,4.4-2.24,6.81-2.99,2.41-.75,4.64-1.13,6.69-1.13,5.24,0,7.87,2.32,7.87,6.95,0,.95-.08,1.95-.25,2.99-.17,1.04-.48,2.28-.92,3.7-.44,1.43-.77,2.45-.99,3.08-.21,.63-.67,1.86-1.36,3.7s-1.08,2.87-1.17,3.08c-1.01,2.82-1.61,5.01-1.79,6.58,6.47-8.16,11.19-13.91,14.17-17.25,.25-.28,.55-.63,.92-1.06,.92-1.04,1.56-1.73,1.91-2.07s.65-.51,.9-.51Z"/>
    <path class="cls-2" d="M93.06,18.03c-.06,.09-.27,.48-.62,1.15-.35,.68-.65,1.26-.9,1.75s-.58,1.21-1.01,2.16c-.43,.95-.81,1.86-1.15,2.71-.34,.86-.69,1.89-1.06,3.08-.37,1.2-.69,2.39-.97,3.59-.03,.09-.05,.22-.05,.37,0,.37,.15,.55,.46,.55,.18,0,.68-.23,1.5-.69,.81-.46,1.34-.69,1.59-.69,.21,0,.34,.06,.37,.18,0,.37-.78,1.05-2.35,2.05-1.56,1-2.64,1.5-3.22,1.5s-.87-.28-.87-.83c0-.28,.06-.6,.18-.97,.34-.95,.68-1.93,1.03-2.94s.62-1.79,.81-2.35,.38-1.12,.57-1.7c.2-.58,.35-1.02,.44-1.31,.09-.29,.18-.58,.25-.87,.08-.29,.13-.51,.16-.67,.03-.15,.05-.31,.05-.46,0-.12-.02-.24-.07-.35-.05-.11-.07-.19-.07-.25,0-.12,.05-.32,.14-.6,.67-1.93,1.27-3.22,1.79-3.86,.52-.64,1.29-.97,2.3-.97,.4,0,.63,.14,.69,.41Zm2.62-7.87c0,.4-.29,.9-.87,1.52-.58,.61-.95,1.09-1.1,1.43-.4,1.01-.83,1.58-1.29,1.7-.61,0-.92-.51-.92-1.52,0-.64,.48-1.35,1.43-2.12,.95-.77,1.78-1.15,2.48-1.15,.15,0,.25,.05,.28,.14Z"/>
    <path class="cls-2" d="M101.75,18.03c-2.18,5.21-4.25,12.16-6.21,20.84-.74,3.19-1.79,5.45-3.15,6.79s-2.8,2-4.3,2c-2.61,0-3.91-1.41-3.91-4.23,0-.74,.1-1.41,.3-2.02,.2-.61,.39-.92,.58-.92,.12,0,.2,.09,.23,.28v.46c0,1.66,.31,3,.92,4.05,.61,1.04,1.37,1.57,2.25,1.57,.71,0,1.4-.38,2.07-1.15,.67-.77,1.26-1.93,1.75-3.5,1.81-5.8,3.48-11.7,5.01-17.71,.06-.25,.09-.51,.09-.78,0-.12-.02-.25-.07-.37-.05-.12-.07-.23-.07-.32,0-.21,.03-.4,.09-.55,.49-1.9,.98-3.18,1.47-3.84,.49-.66,1.23-.99,2.21-.99,.4,0,.64,.14,.74,.41Zm1.56-6.95c-.37,.21-.69,.53-.97,.94-.28,.41-.48,.81-.6,1.2-.12,.38-.29,.72-.51,1.01-.21,.29-.46,.44-.74,.44-.21,0-.41-.24-.6-.71-.18-.48-.29-.87-.32-1.17,0-.64,.51-1.3,1.52-1.98,1.01-.67,1.81-1.01,2.39-1.01,.43,0,.64,.14,.64,.41s-.28,.57-.83,.87Z"/>
    <path class="cls-2" d="M117.48,18.35c-1.56,2.61-3.02,5.6-4.37,8.97-1.35,3.37-2.02,5.9-2.02,7.59,0,.55,.12,.83,.37,.83,.09,0,.39-.15,.9-.46,.51-.31,.8-.46,.9-.46,.18,0,.28,.09,.28,.28,0,.37-.34,.78-1.01,1.24-.67,.46-1.35,.69-2.02,.69-.89,0-1.33-.66-1.33-1.98,0-1.2,.25-2.59,.74-4.19,.49-1.59,1.26-3.63,2.3-6.12,1.04-2.48,1.56-3.74,1.56-3.77,.15-.4,.23-.71,.23-.92,0-.15-.05-.23-.14-.23-.15,0-.49,.28-1.01,.83-1.32,1.47-3.21,3.99-5.66,7.54-2.45,3.56-3.71,5.75-3.77,6.58-.03,.21-.32,.51-.87,.9-.55,.38-1.01,.58-1.38,.58-.21,0-.34-.11-.37-.32,.06,.09,.64-1.44,1.73-4.6,1.09-3.16,1.86-5.44,2.32-6.85,.12-.37,.18-.64,.18-.83,0-.12-.02-.24-.07-.35-.05-.11-.07-.19-.07-.25,0-.12,.05-.32,.14-.6,.71-1.96,1.3-3.26,1.79-3.89,.49-.63,1.24-.94,2.25-.94,.4,0,.63,.14,.69,.41-2.52,5.15-4.02,8.83-4.51,11.04,5.06-8.16,8.94-12.24,11.64-12.24,.61,0,.92,.2,.92,.6,0,.28-.11,.58-.32,.92Z"/>
    <path class="cls-2" d="M126.91,45.31c-.28,1.56-1.63,3-4.07,4.3-2.44,1.3-4.75,1.96-6.92,1.96s-3.36-.81-3.36-2.44,.75-3.9,2.25-6.83,2.76-4.96,3.77-6.09c.09-.12,.4-.28,.92-.46-.15-.09-.35-.21-.6-.34-.25-.14-.45-.25-.62-.32-.17-.08-.31-.18-.44-.3-.12-.12-.18-.25-.18-.37,0-.34,.15-.65,.44-.94,.29-.29,.59-.44,.9-.44h.18c1.87,.71,3.63,2.25,5.29,4.65,1.66,2.39,2.48,4.63,2.48,6.72,0,.43-.02,.74-.05,.92Zm-2.16,.6v-.6c0-1.63-.44-3.25-1.31-4.88-.87-1.62-1.92-2.97-3.15-4.05-.06,.09-.44,.63-1.13,1.61-.69,.98-1.27,1.84-1.75,2.58-.48,.74-1.02,1.63-1.63,2.69-.61,1.06-1.09,2.04-1.43,2.95-.34,.9-.51,1.68-.51,2.32,0,1.26,.72,1.89,2.16,1.89,1.56,0,3.4-.52,5.5-1.56,2.1-1.04,3.18-2.02,3.24-2.94Zm5.43-23.97c0,.28-.23,.41-.69,.41h-.41c-.03,.18-.1,.56-.21,1.13-.11,.57-.21,1.09-.3,1.56-.09,.48-.17,.79-.23,.94-.77,1.96-1.83,3.53-3.2,4.71-1.37,1.18-2.78,1.77-4.25,1.77-.86,0-1.48-.24-1.86-.74-.38-.49-.58-1.27-.58-2.35,0-2.64,.82-5.18,2.46-7.64,1.64-2.45,3.36-3.68,5.17-3.68,.15,0,.38,.03,.69,.09,0-1.1,.4-1.66,1.2-1.66,.89,0,1.33,.71,1.33,2.12,0,.21-.02,.58-.05,1.1-.03,.52-.05,.9-.05,1.15,.03,0,.09,.03,.18,.09,.09,.06,.18,.12,.25,.18,.08,.06,.16,.14,.25,.23,.09,.09,.16,.18,.21,.28,.05,.09,.07,.18,.07,.28Zm-2.81,.23c-.34-.06-.54-.54-.6-1.45-.06-.9-.28-1.36-.64-1.36-.95,0-1.84,.61-2.67,1.84s-1.47,2.44-1.93,3.63c-.77,2.09-1.15,3.71-1.15,4.88,0,.95,.38,1.43,1.15,1.43,1.13,0,2.39-.91,3.77-2.74s2.07-3.9,2.07-6.23Z"/>
    <path class="cls-2" d="M144.67,31.79s-.17,.16-.41,.39c-.25,.23-.45,.41-.6,.53-.15,.12-.38,.31-.67,.58-.29,.26-.54,.47-.76,.62s-.48,.34-.78,.55c-.31,.21-.57,.38-.8,.48-.23,.11-.47,.21-.71,.3-.25,.09-.48,.14-.69,.14-.64,0-1.03-.38-1.15-1.15,0-1.29,.51-3.66,1.52-7.13-4.11,5.67-7.05,8.51-8.83,8.51-.74,0-1.1-.55-1.1-1.66,0-1.41,.42-3.32,1.26-5.73,.84-2.41,1.88-4.58,3.11-6.53,1.23-1.95,2.3-2.92,3.22-2.92h.14l.51-.37c.28-.31,.71-.46,1.29-.46,.46,0,1.1,.12,1.93,.37,.83,.25,1.29,.37,1.38,.37,.12,0,.28-.12,.48-.37,.2-.25,.44-.37,.71-.37,.77,0,1.15,.34,1.15,1.01,0,.28-.05,.58-.16,.92-.11,.34-.26,.73-.46,1.17-.2,.44-.31,.71-.34,.8-.03,.06-.18,.15-.44,.28-.26,.12-.41,.23-.44,.32-.67,1.9-1.27,3.93-1.79,6.1-.52,2.16-.78,3.49-.78,3.98,0,.77,.21,1.15,.64,1.15s.96-.26,1.59-.78c.63-.52,1.17-1.04,1.63-1.56s.71-.78,.74-.78c.06,0,.09,.06,.09,.18,0,.46-.15,.81-.46,1.06Zm-3.04-12.24c-.18,0-.5-.03-.94-.09s-.82-.09-1.13-.09c-.43,0-.89,.06-1.38,.18-.77,.21-2.02,2.03-3.77,5.45s-2.62,5.97-2.62,7.66c0,.52,.15,.78,.46,.78,.64,0,1.79-.94,3.43-2.81,1.64-1.87,2.72-3.2,3.24-4,.77-1.23,1.47-2.55,2.12-3.98,.64-1.43,.97-2.37,.97-2.83,0-.18-.08-.28-.23-.28h-.14Z"/>
    <path class="cls-2" d="M159.8,31.79s-.17,.16-.41,.39c-.25,.23-.45,.41-.6,.53-.15,.12-.38,.31-.67,.58-.29,.26-.54,.47-.76,.62s-.48,.34-.78,.55c-.31,.21-.57,.38-.8,.48-.23,.11-.47,.21-.71,.3-.25,.09-.48,.14-.69,.14-.64,0-1.03-.38-1.15-1.15,0-1.29,.51-3.66,1.52-7.13-4.11,5.67-7.05,8.51-8.83,8.51-.74,0-1.1-.55-1.1-1.66,0-1.41,.42-3.32,1.26-5.73,.84-2.41,1.88-4.58,3.11-6.53,1.23-1.95,2.3-2.92,3.22-2.92h.14l.51-.37c.28-.31,.71-.46,1.29-.46,.46,0,1.1,.12,1.93,.37,.83,.25,1.29,.37,1.38,.37,.12,0,.28-.12,.48-.37,.2-.25,.44-.37,.71-.37,.77,0,1.15,.34,1.15,1.01,0,.28-.05,.58-.16,.92-.11,.34-.26,.73-.46,1.17-.2,.44-.31,.71-.34,.8-.03,.06-.18,.15-.44,.28-.26,.12-.41,.23-.44,.32-.67,1.9-1.27,3.93-1.79,6.1-.52,2.16-.78,3.49-.78,3.98,0,.77,.21,1.15,.64,1.15s.96-.26,1.59-.78c.63-.52,1.17-1.04,1.63-1.56s.71-.78,.74-.78c.06,0,.09,.06,.09,.18,0,.46-.15,.81-.46,1.06Zm-3.04-12.24c-.18,0-.5-.03-.94-.09s-.82-.09-1.13-.09c-.43,0-.89,.06-1.38,.18-.77,.21-2.02,2.03-3.77,5.45s-2.62,5.97-2.62,7.66c0,.52,.15,.78,.46,.78,.64,0,1.79-.94,3.43-2.81,1.64-1.87,2.72-3.2,3.24-4,.77-1.23,1.47-2.55,2.12-3.98,.64-1.43,.97-2.37,.97-2.83,0-.18-.08-.28-.23-.28h-.14Z"/>
    <path class="cls-2" d="M173.23,21.9c-.25,.34-.58,.67-.99,.99-.41,.32-.73,.48-.94,.48-.18,0-.28-.09-.28-.28,0-.12,.15-.55,.44-1.29,.29-.74,.44-1.24,.44-1.52,0-.21-.08-.32-.23-.32-1.07,0-2.66,1.66-4.76,4.97s-3.66,6.55-4.67,9.71c-.18,.25-.48,.49-.87,.74s-.74,.37-1.01,.37c-.18,0-.32-.08-.41-.23,0-.83,.1-1.58,.3-2.25,.2-.67,.45-1.07,.76-1.2,.67-2.55,1.15-4.45,1.43-5.7l.46-1.93c.06-.21,.09-.46,.09-.74,0-.15-.03-.29-.09-.41-.06-.12-.09-.25-.09-.37,0-.18,.03-.35,.09-.51,.49-1.93,.99-3.25,1.49-3.96,.51-.71,1.25-1.06,2.23-1.06,.37,0,.58,.12,.64,.37-.03,.09-.25,.63-.67,1.61-.41,.98-.8,1.9-1.15,2.76-.35,.86-.74,1.95-1.17,3.27-.43,1.32-.77,2.53-1.01,3.63,1.01-1.99,2.58-4.39,4.69-7.2,2.12-2.81,3.86-4.21,5.24-4.21,.74,0,1.1,.46,1.1,1.38s-.35,1.92-1.06,2.9Z"/>
    <path class="cls-2" d="M191.68,5.66c.09,.06,.14,.2,.14,.41,0,.49-.24,1.4-.71,2.74-.48,1.33-1.13,3.07-1.98,5.2-.84,2.13-1.49,3.87-1.96,5.22,.03-.03,.06-.05,.09-.05,.12,0,.25,.11,.39,.32,.14,.21,.21,.41,.21,.6s-.15,.28-.46,.28c-.4,0-.61-.05-.64-.14-.61,1.38-1.39,3.62-2.32,6.72s-1.4,5-1.4,5.7,.2,1.06,.6,1.06c.46,0,1-.27,1.61-.8,.61-.54,1.16-1.08,1.63-1.63,.47-.55,.76-.83,.85-.83s.14,.08,.14,.23c0,.09-.02,.21-.07,.37-.04,.15-.09,.28-.14,.39-.05,.11-.09,.16-.12,.16-.71,.71-1.69,1.51-2.94,2.41-1.26,.91-2.24,1.36-2.94,1.36-.58,0-.87-.32-.87-.97,0-1.66,.58-4.19,1.75-7.59-1.32,1.87-2.92,3.83-4.81,5.89-1.89,2.05-3.37,3.08-4.44,3.08-.64,0-.97-.46-.97-1.38,0-1.32,.46-3.23,1.38-5.73,.92-2.5,2.02-4.77,3.29-6.81s2.34-3.06,3.2-3.06h.18c.21,0,.47-.12,.76-.35,.29-.23,.6-.34,.94-.34,.46,0,1.11,.12,1.96,.37,.84,.25,1.3,.37,1.36,.37,.03,0,.05-.02,.05-.05,2.21-5.95,3.34-9.02,3.4-9.2-.34,0-.51-.18-.51-.55,0-.86,.46-1.98,1.38-3.36,.12-.25,.37-.37,.73-.37,.4,0,.81,.11,1.24,.32Zm-6.58,14.21c0-.34-.9-.51-2.71-.51-.52,0-.91,.03-1.15,.09-.67,.18-1.97,2.04-3.89,5.57-1.92,3.53-2.88,6.1-2.88,7.73,0,.49,.15,.74,.46,.74s.75-.25,1.33-.74c.58-.49,1.12-1.01,1.61-1.56,.49-.55,1.03-1.16,1.61-1.82,.58-.66,.89-1.02,.92-1.08,.83-.92,1.59-2,2.28-3.24,.69-1.24,1.26-2.4,1.7-3.47,.44-1.07,.68-1.64,.71-1.7Z"/>
    <path class="cls-2" d="M203.04,19.18c-1.66,2.67-3.2,5.64-4.62,8.9-1.43,3.27-2.14,5.8-2.14,7.61,0,.43,.12,.64,.37,.64,.09,0,.36-.14,.81-.41,.44-.28,.71-.41,.8-.41,.15,0,.23,.09,.23,.28,0,.37-.29,.76-.87,1.17-.58,.41-1.15,.62-1.7,.62-.77,0-1.15-.57-1.15-1.7,0-1.32,.43-3.18,1.29-5.59,.86-2.41,1.72-4.6,2.58-6.58,.86-1.98,1.29-3.09,1.29-3.33,0-.06-.02-.09-.05-.09-.12,0-.4,.23-.83,.69-1.93,2.18-3.56,4.3-4.88,6.37-1.32,2.07-2.2,3.66-2.65,4.76-.44,1.1-.9,1.99-1.38,2.64-.48,.66-1.04,.99-1.68,.99-.28,0-.41-.15-.41-.46,0-.28,.08-.58,.23-.92,.83-2.15,1.62-4.37,2.39-6.67,.77-2.3,1.59-4.87,2.46-7.71,.87-2.84,1.59-5.08,2.14-6.74,.09-.28,.14-.55,.14-.83,0-.12-.02-.24-.05-.35-.03-.11-.05-.19-.05-.25,0-.12,.05-.32,.14-.6,.71-1.96,1.3-3.26,1.79-3.89,.49-.63,1.24-.94,2.25-.94,.4,0,.63,.14,.69,.41-3.34,6.75-6.06,13.92-8.14,21.53,4.57-7.15,8.02-10.72,10.35-10.72,.64,0,.97,.21,.97,.64,0,.28-.11,.58-.32,.92Z"/>
    <path class="cls-2" d="M215.87,22.26c0,.25-.23,.48-.69,.71-.46,.23-.87,.34-1.24,.34,0,3.59-.94,6.65-2.81,9.2-1.87,2.55-3.73,3.82-5.57,3.82s-2.67-1.29-2.67-3.86c0-.71,.06-1.41,.18-2.12,.15-.8,.43-1.82,.83-3.08,.4-1.26,.92-2.62,1.56-4.09,.64-1.47,1.43-2.72,2.37-3.75,.93-1.03,1.88-1.54,2.83-1.54h.32c0-.43,.12-.8,.37-1.1s.58-.46,1.01-.46c.43,.03,.81,.93,1.15,2.69,.34,1.76,.83,2.68,1.47,2.74,.58,.09,.87,.26,.87,.51Zm-3.22,.69c-.28-.15-.61-.7-1.01-1.63-.4-.94-.67-1.4-.83-1.4-.95,0-2.05,1.4-3.31,4.21-1.26,2.81-2.04,5.02-2.35,6.65-.12,.71-.18,1.35-.18,1.93,0,1.5,.43,2.25,1.29,2.25,1.23,0,2.6-1.25,4.12-3.75,1.52-2.5,2.28-5.25,2.28-8.26Z"/>
    <path class="cls-2" d="M231.7,4.97c.49,.09,.74,.44,.74,1.06,0,.43-.1,.85-.3,1.27-.2,.41-.41,.62-.62,.62-.03,0-.12-.16-.28-.48-.15-.32-.41-.64-.76-.94-.35-.31-.79-.46-1.31-.46-1.47,0-2.54,.86-3.22,2.58-1.35,3.47-2.39,6.67-3.13,9.61h4.51c.86,0,1.29,.09,1.29,.28,0,.31-.71,.54-2.12,.71-1.41,.17-2.76,.25-4.05,.25-.12,.31-.5,1.53-1.13,3.68-.63,2.15-1.33,4.55-2.12,7.2-.78,2.65-1.37,4.61-1.77,5.87-1.01,3.19-2.26,5.45-3.75,6.79s-2.98,2-4.49,2c-2.36,0-3.54-1.23-3.54-3.68,0-.86,.13-1.66,.39-2.39s.5-1.1,.71-1.1c.12,0,.2,.09,.23,.28-.06,.61-.09,1.04-.09,1.29,0,1.41,.28,2.54,.83,3.4,.55,.86,1.23,1.29,2.02,1.29,.74,0,1.49-.39,2.25-1.17,.77-.78,1.47-1.97,2.12-3.57,.86-2.15,2.02-5.58,3.47-10.3,1.46-4.72,2.38-7.85,2.78-9.38-.74,.12-1.76,.18-3.08,.18-.71,0-1.06-.14-1.06-.41,0-.21,.2-.47,.6-.76,.4-.29,.72-.44,.97-.44h2.94c1.41-5,2.38-8.06,2.9-9.2,.28-.61,.58-1.15,.9-1.61,.32-.46,.67-.83,1.06-1.1,.38-.28,.74-.5,1.08-.67,.34-.17,.74-.29,1.22-.37,.48-.08,.87-.13,1.2-.16,.32-.03,.76-.05,1.31-.07,.55-.02,.98-.04,1.29-.07Z"/>
  </g>
  <g>
    <path class="cls-1" d="M136.1,50.13c-.52,0-1-.07-1.45-.21-.44-.14-.86-.34-1.25-.61v-1.52s.66,0,.66,0l.12,1.09c.26,.21,.56,.35,.88,.44,.32,.09,.67,.14,1.04,.14,.62,0,1.09-.13,1.42-.4,.32-.27,.49-.59,.49-.96,0-.35-.14-.65-.43-.92-.29-.27-.8-.48-1.54-.65-.88-.19-1.52-.45-1.92-.77-.39-.32-.59-.76-.59-1.33,0-.37,.11-.71,.31-1.01,.21-.3,.51-.54,.89-.71,.38-.18,.84-.26,1.36-.26s1.01,.08,1.42,.24c.4,.16,.75,.37,1.03,.63l.03,1.52h-.67l-.1-1.09c-.21-.2-.44-.35-.72-.45-.27-.11-.61-.16-1-.16-.56,0-.98,.13-1.29,.39-.3,.26-.45,.56-.45,.9,0,.22,.05,.42,.14,.58,.09,.17,.27,.32,.54,.45s.66,.26,1.17,.38c.93,.21,1.6,.49,2.01,.85,.42,.36,.62,.82,.62,1.39,0,.6-.23,1.1-.7,1.48-.47,.39-1.14,.58-2.02,.58Z"/>
    <path class="cls-1" d="M140.17,49.98v-.59l1.11-.09v-6.02l-1.11-.09v-.6h1.93v6.71l1.11,.09v.59h-3.05Zm1.02-9.48v-1.18h.92v1.18h-.92Z"/>
    <path class="cls-1" d="M144.49,49.98v-.59l1.11-.09v-6.02l-1.11-.09v-.6h1.84l.07,1.33c.24-.46,.56-.83,.96-1.08s.88-.38,1.44-.38c.8,0,1.41,.25,1.83,.73,.42,.49,.63,1.26,.63,2.3v3.81l1.11,.09v.59h-3.05v-.59l1.11-.09v-3.81c0-.86-.16-1.46-.47-1.81s-.76-.53-1.35-.53-1.09,.17-1.45,.51-.6,.79-.74,1.34v4.29l1.11,.09v.59h-3.05Z"/>
    <path class="cls-1" d="M156.41,50.13c-.59,0-1.09-.15-1.52-.45s-.75-.72-.97-1.26-.33-1.18-.33-1.92v-.14c0-.79,.11-1.47,.33-2.06s.55-1.04,.97-1.36c.43-.32,.94-.48,1.53-.48,.51,0,.96,.11,1.34,.33,.38,.22,.69,.52,.94,.92v-3.68l-1.11-.09v-.6h1.93v9.98l1.11,.09v.59h-1.85l-.06-1.05c-.24,.37-.56,.67-.95,.88s-.85,.31-1.37,.31Zm.15-.7c.53,0,.98-.12,1.33-.36s.63-.57,.81-.98v-3.45c-.18-.43-.44-.78-.78-1.06-.34-.28-.79-.41-1.35-.41-.48,0-.88,.13-1.2,.4s-.56,.64-.72,1.12c-.16,.48-.24,1.03-.24,1.67v.14c0,.89,.18,1.61,.54,2.14,.36,.53,.89,.8,1.61,.8Z"/>
    <path class="cls-1" d="M164.65,50.13c-.52,0-1-.07-1.45-.21-.44-.14-.86-.34-1.25-.61v-1.52s.66,0,.66,0l.12,1.09c.26,.21,.56,.35,.88,.44s.67,.14,1.04,.14c.62,0,1.09-.13,1.42-.4s.49-.59,.49-.96c0-.35-.14-.65-.43-.92-.29-.27-.8-.48-1.54-.65-.88-.19-1.52-.45-1.92-.77-.39-.32-.59-.76-.59-1.33,0-.37,.1-.71,.31-1.01s.51-.54,.89-.71c.39-.18,.84-.26,1.36-.26s1.01,.08,1.42,.24c.4,.16,.75,.37,1.03,.63l.03,1.52h-.67l-.1-1.09c-.21-.2-.44-.35-.72-.45-.27-.11-.61-.16-1-.16-.56,0-.98,.13-1.29,.39-.3,.26-.45,.56-.45,.9,0,.22,.05,.42,.14,.58,.09,.17,.27,.32,.54,.45,.27,.13,.66,.26,1.17,.38,.92,.21,1.59,.49,2.01,.85,.42,.36,.62,.82,.62,1.39,0,.6-.23,1.1-.7,1.48-.47,.39-1.14,.58-2.02,.58Z"/>
    <path class="cls-1" d="M172.37,49.98v-.59l1.79-.09v-8.42l-1.97,.29v-.57l2.79-.59v9.3l1.78,.09v.59h-4.4Z"/>
    <path class="cls-1" d="M180.74,50.13c-.35,0-.71-.04-1.07-.11-.36-.07-.7-.17-1.03-.31l.15-.68c.31,.15,.62,.25,.92,.32,.3,.07,.64,.1,1.02,.1,.76,0,1.35-.28,1.78-.85,.43-.57,.65-1.43,.66-2.6v-.47c-.24,.41-.55,.73-.95,.96-.4,.23-.86,.34-1.36,.34-.61,0-1.14-.14-1.59-.43-.45-.29-.8-.68-1.06-1.19s-.38-1.1-.38-1.76,.13-1.27,.4-1.81c.26-.54,.62-.96,1.08-1.27,.46-.31,.97-.47,1.55-.47,.65,0,1.21,.14,1.68,.42,.47,.28,.84,.7,1.1,1.27,.26,.57,.39,1.28,.39,2.13v2.09c0,.97-.14,1.77-.41,2.41-.27,.64-.66,1.12-1.16,1.44s-1.08,.48-1.76,.48Zm.14-3.99c.59,0,1.09-.15,1.49-.46,.4-.31,.68-.68,.84-1.13v-.9c0-1.03-.2-1.8-.61-2.31s-.97-.76-1.68-.76c-.43,0-.81,.13-1.14,.39-.33,.26-.59,.6-.79,1.03-.19,.43-.29,.91-.29,1.44s.09,.98,.27,1.38,.43,.73,.75,.96c.33,.24,.71,.36,1.15,.36Z"/>
    <path class="cls-1" d="M188.52,50.13c-.35,0-.71-.04-1.07-.11-.36-.07-.7-.17-1.03-.31l.15-.68c.31,.15,.62,.25,.92,.32,.3,.07,.64,.1,1.02,.1,.76,0,1.35-.28,1.78-.85,.43-.57,.65-1.43,.66-2.6v-.47c-.24,.41-.55,.73-.95,.96-.4,.23-.86,.34-1.36,.34-.61,0-1.14-.14-1.59-.43-.45-.29-.8-.68-1.06-1.19s-.38-1.1-.38-1.76,.13-1.27,.4-1.81c.26-.54,.62-.96,1.08-1.27,.46-.31,.97-.47,1.55-.47,.65,0,1.21,.14,1.68,.42,.47,.28,.84,.7,1.1,1.27,.26,.57,.39,1.28,.39,2.13v2.09c0,.97-.14,1.77-.41,2.41-.27,.64-.66,1.12-1.16,1.44s-1.08,.48-1.76,.48Zm.14-3.99c.59,0,1.09-.15,1.49-.46,.4-.31,.68-.68,.84-1.13v-.9c0-1.03-.2-1.8-.61-2.31s-.97-.76-1.68-.76c-.43,0-.81,.13-1.14,.39-.33,.26-.59,.6-.79,1.03-.19,.43-.29,.91-.29,1.44s.09,.98,.27,1.38,.43,.73,.75,.96c.33,.24,.71,.36,1.15,.36Z"/>
    <path class="cls-1" d="M196.77,50.13c-.97,0-1.73-.35-2.28-1.04-.55-.7-.82-1.68-.82-2.96v-2.22c0-1.29,.27-2.28,.82-2.97,.54-.69,1.3-1.04,2.27-1.04s1.73,.35,2.28,1.04c.55,.7,.82,1.69,.82,2.97v2.22c0,1.29-.27,2.27-.81,2.97s-1.3,1.04-2.27,1.04Zm0-.68c.74,0,1.3-.28,1.68-.84,.39-.56,.58-1.35,.58-2.37v-2.47c0-1.02-.19-1.81-.58-2.36s-.95-.83-1.7-.83-1.3,.28-1.69,.83-.58,1.34-.58,2.36v2.47c0,1.02,.2,1.8,.59,2.37s.96,.84,1.7,.84Z"/>
  </g>
</svg>