<?xml version="1.0" encoding="UTF-8"?>
<svg id="Laag_1" data-name="Laag 1" xmlns="http://www.w3.org/2000/svg" viewBox="0 0 419.83 90.75">
  <defs>
    <style>
      .cls-1 {
        opacity: .85;
      }

      .cls-2 {
        fill: #ddb775;
      }
    </style>
  </defs>
  <g class="cls-1">
    <path class="cls-2" d="M384.27,.46c-1.39,.1-2.79,.17-4.18,.24,.77,.44,1.59,1.17,2.49,2.4,1.04,.74,1.25-1.03,1.69-2.64Z"/>
    <path class="cls-2" d="M376.21,.88c-.25,0-.51,.02-.74,.03-.19,.25-.37,.51-.53,.78,.42-.3,.84-.57,1.27-.8Z"/>
    <path class="cls-2" d="M369.3,3.87c1.33,.24,2.51-.2,3.62-.85-1.12-.42-2.33-.26-3.62,.85Z"/>
    <path class="cls-2" d="M375.31,4.89c-.61-1.06-1-2.21-.4-3.18,0,0,.02-.01,.03-.03-.66,.46-1.32,.94-2.02,1.35,.84,.33,1.65,.98,2.39,1.86Z"/>
    <path class="cls-2" d="M375.31,4.89c.59,1.03,1.42,1.95,1.75,2.55-.54-.95-1.13-1.81-1.75-2.55Z"/>
    <path class="cls-2" d="M377.44,32c-.62,.96-1.55-6.67-2.76-4.76-3.1,2.64-5.55,6.47-8.76,6.93-1.23,1.91-4.7-6.21-5.91-4.3-3.12,2.6-10.55,14.01-5.43,12.85,7.65-2.17,12.45-4.94,19.23-7.35,5.24-3.87,10.14-8.32,15.49-11.96,1.56-.6,3.16-.26,4.77,0-2.17-.86-4.39-1.7-6.81-2.49-3.28-1.65-5.38,8.66-9.81,11.06Z"/>
    <path class="cls-2" d="M415.37,0c-.56,.97-1.7,2.93-1.7,2.93-4.15-4.87-7.12-2.17-10.14,.52,.7,1.16,1.41,2.34,2.13,3.53,1.86-.76,1.72-2.91-.27-4.28,4.7,3.95,8.55,3.98,12.21,2.55-.6-2.01-.98-4.38-2.23-5.24Z"/>
    <path class="cls-2" d="M419.72,4.23c-.7,.38-1.41,.72-2.12,1.02,.06,.21,.13,.42,.2,.64,.68-.5,1.37-1,2.03-1.49-.04-.05-.08-.11-.11-.17Z"/>
    <path class="cls-2" d="M354.96,12.98c-9.59,1.62-18.72,2.4-27.67,2.76-.5,1.57-.76,3.36-1.79,2.57-.85-1.24-1.66-1.99-2.41-2.47-1.31,.04-2.62,.06-3.92,.07-.43,.23-.86,.49-1.29,.76,0,.01-.02,.03-.03,.04-.62,.95-.27,2.1,.32,3.17,.6,.75,1.17,1.64,1.69,2.6-.33-.61-1.12-1.55-1.69-2.6-.73-.89-1.5-1.57-2.35-1.91-1.12,.61-2.33,1.03-3.66,.74,1.31-1.06,2.54-1.21,3.66-.74,.71-.4,1.38-.86,2.06-1.31,.18-.25,.36-.5,.55-.77-2.99,.04-5.98,0-8.97-.04-.65,.28-1.28,.52-1.78,.84-2.01,1.27-4.02,2.54-5.77-1.01-.53,0-1.07-.02-1.61-.05,.13,.22,.25,.4,.38,.65-.26-.21-.49-.43-.68-.65-2.26-.07-4.52-.14-6.8-.22-1.28,1.6-2.57,3.58-3.94,4.83,0,0-1.29-2.44-1.93-3.64-.39,1.97-1.12,3.33-2.06,4.09,1.46,2.15,2.84,4.54,4.04,5.99,1.94,3.65,2.49-8.04,5.08-1.04-2.59-7-3.15,4.69-5.08,1.04-1.2-1.45-2.58-3.84-4.04-5.99-1.96,1.6-4.85,.54-7.47-2.93,2.38-3.53,5.03-.66,7.47,2.93,.95-.75,1.67-2.11,2.06-4.09,.64,1.2,1.93,3.64,1.93,3.64,1.37-1.25,2.66-3.23,3.94-4.83-4.44-.16-8.93-.31-13.52-.47-29.57-1.66-56.31,2.11-86.86,1.81-16.58-.42-32.64-1.98-48.52-4.77-31.68-5.55-58.57,7.73-91.69-8.15C39.97-1.62,18.27,4.45,6.88,6.5c-14,14.35-2.45,46.25-1.52,48.02,12.5,26.89,18.21,10.58,39.26,24.89-14.14-7.89,7.72-19.03,22.2-1.25,21.11,27.19,44.13,1.09,67.06,6.13,5.73,1.27,11.46-.69,18.14-.84,35.35,6.17,65.84-9.64,102.12-11.32,9.54-1.12,17.17-9.12,24.82-13.88,5.75-1.96,12.47,1.08,17.28,.52,7.55-.92,13.76-4.35,19.6-8.44-6.81,2.22-11.66,4.85-19.29,6.88-5.12,1.05,2.49-10.19,5.66-12.74,1.27-1.88,4.54,6.33,5.81,4.44,3.19-.38,5.72-4.15,8.89-6.71,1.26-1.88,2,5.78,2.64,4.85,4.47-2.3,6.88-12.51,10.11-10.79,2.4,.85,4.59,1.77,6.73,2.7,1.31,.26,2.61,.45,3.9-.02,.75-.73,1.52-1.49,2.3-2.24-.98-2.25-1.59-5.06-2.18-7.9,1.28,.26,3.23,1.72,4.52,1.98-1.28-.26-3.24-1.72-4.52-1.98,.59,2.84,1.2,5.66,2.18,7.9,5.57-5.26,12.1-10.22,18.2-14.4-.06-.2-.12-.46-.18-.67-3.72,1.31-7.56,1.1-12.14-2.99,1.94,1.45,2.01,3.59,.11,4.31-.67-1.2-1.34-2.42-2-3.61,3.13-2.59,6.22-5.2,10.2-.15,0,0,1.22-1.91,1.83-2.85,1.22,.9,1.5,3.3,2.01,5.3,.73-.24,1.45-.57,2.18-.92-2.13-3.55-7.8-7.75-7.8-7.75Z"/>
    <path class="cls-2" d="M315.69,17.77c.49-.31,1.11-.56,1.77-.83-2.51-.05-5.02-.1-7.55-.16,1.75,3.55,3.76,2.27,5.78,.99Z"/>
  </g>
</svg>